<svg width="52" height="53" viewBox="0 0 52 53" fill="none" xmlns="http://www.w3.org/2000/svg">
<rect y="0.217041" width="51.9066" height="51.9066" rx="25" fill="white"/>
<path d="M26.3207 28.8819H16.6948C16.6781 28.8819 16.6697 28.8819 16.6669 28.8765C16.6641 28.8712 16.6688 28.8643 16.6784 28.8505L16.6784 28.8505L26.3042 14.9893C26.3192 14.9678 26.3266 14.957 26.3337 14.9592C26.3407 14.9614 26.3407 14.9745 26.3407 15.0007V24.2135C26.3407 24.223 26.3407 24.2277 26.3436 24.2306C26.3465 24.2335 26.3512 24.2335 26.3607 24.2335H35.9865C36.0033 24.2335 36.0117 24.2335 36.0145 24.2389C36.0173 24.2443 36.0125 24.2512 36.0029 24.2649L26.3771 38.1261C26.3622 38.1476 26.3547 38.1584 26.3477 38.1562C26.3407 38.154 26.3407 38.1409 26.3407 38.1147V28.9019C26.3407 28.8925 26.3407 28.8877 26.3377 28.8848C26.3348 28.8819 26.3301 28.8819 26.3207 28.8819Z" stroke="#06335B" stroke-width="3"/>
</svg>
