<svg width="107" height="107" viewBox="0 0 107 107" fill="none" xmlns="http://www.w3.org/2000/svg">
<path d="M0 23.2C0 10.387 10.387 0 23.2 0H83.8C96.613 0 107 10.387 107 23.2V83.8C107 96.613 96.613 107 83.8 107H23.2C10.387 107 0 96.613 0 83.8V23.2Z" fill="#06335B" fill-opacity="0.26"/>
<path d="M30.8472 26.0465L33.0421 23.8516C34.4398 22.4539 36.7059 22.4539 38.1036 23.8516L47.3582 33.1061C48.7559 34.5038 48.7559 36.7699 47.3582 38.1676L40.9431 44.5827C39.8734 45.6524 39.6082 47.2866 40.2848 48.6397C44.1958 56.4617 50.5383 62.8042 58.3603 66.7152C59.7134 67.3918 61.3476 67.1266 62.4173 66.0569L68.8324 59.6418C70.23 58.2441 72.4962 58.2441 73.8939 59.6418L83.1484 68.8964C84.5461 70.2941 84.5461 72.5602 83.1484 73.9579L80.9535 76.1528C73.397 83.7094 61.4338 84.5595 52.8846 78.1476L48.5596 74.9039C42.3195 70.2238 36.7762 64.6805 32.0961 58.4404L28.8524 54.1154C22.4405 45.5662 23.2906 33.603 30.8472 26.0465Z" fill="#06335B"/>
<path d="M30.8472 26.0465L33.0421 23.8516C34.4398 22.4539 36.7059 22.4539 38.1036 23.8516L47.3582 33.1061C48.7559 34.5038 48.7559 36.7699 47.3582 38.1676L40.9431 44.5827C39.8734 45.6524 39.6082 47.2866 40.2848 48.6397C44.1958 56.4617 50.5383 62.8042 58.3603 66.7152C59.7134 67.3918 61.3476 67.1266 62.4173 66.0569L68.8324 59.6418C70.23 58.2441 72.4962 58.2441 73.8939 59.6418L83.1484 68.8964C84.5461 70.2941 84.5461 72.5602 83.1484 73.9579L80.9535 76.1528C73.397 83.7094 61.4338 84.5595 52.8846 78.1476L48.5596 74.9039C42.3195 70.2238 36.7762 64.6805 32.0961 58.4404L28.8524 54.1154C22.4405 45.5662 23.2906 33.603 30.8472 26.0465Z" fill="url(#paint0_linear_1_189)"/>
<defs>
<linearGradient id="paint0_linear_1_189" x1="118.177" y1="-41.6904" x2="5.83339" y2="60.9447" gradientUnits="userSpaceOnUse">
<stop stop-opacity="0"/>
<stop offset="1" stop-opacity="0.21"/>
</linearGradient>
</defs>
</svg>
