<svg width="23" height="21" viewBox="0 0 23 21" fill="none" xmlns="http://www.w3.org/2000/svg">
<path fill-rule="evenodd" clip-rule="evenodd" d="M8.88794 3C3.97927 3 0 6.97927 0 11.8879C0 16.7966 3.97927 20.7759 8.88794 20.7759H13.3319C14.7123 20.7759 15.4025 20.7759 15.947 20.5504C16.6729 20.2497 17.2497 19.6729 17.5504 18.947C17.7759 18.4025 17.7759 17.7123 17.7759 16.3319V11.8879C17.7759 6.97927 13.7966 3 8.88794 3ZM4.93774 10.9004C4.93774 10.355 5.37988 9.91284 5.92529 9.91284H11.8506C12.396 9.91284 12.8381 10.355 12.8381 10.9004C12.8381 11.4458 12.396 11.8879 11.8506 11.8879H5.92529C5.37988 11.8879 4.93774 11.4458 4.93774 10.9004ZM7.90039 14.8506C7.90039 14.3052 8.34253 13.863 8.88794 13.863H11.8506C12.396 13.863 12.8381 14.3052 12.8381 14.8506C12.8381 15.396 12.396 15.8381 11.8506 15.8381H8.88794C8.34253 15.8381 7.90039 15.396 7.90039 14.8506Z" fill="black"/>
<rect x="10" width="13" height="7.94444" rx="3.97222" fill="#FF0000"/>
<path d="M16.2472 3.17778C16.2472 2.05833 15.4383 1.34333 14.3333 1.34333C13.2138 1.34333 12.3905 2.08722 12.3905 3.13444C12.3905 4.17444 13.1777 4.88944 14.1672 4.88944C14.3838 4.88944 14.5788 4.85333 14.7522 4.77389L13.3872 6.5H14.4488L15.4888 5.12778C15.9944 4.45611 16.2472 3.80611 16.2472 3.17778ZM15.3444 3.13444C15.3444 3.74833 14.9544 4.12389 14.3188 4.12389C13.6833 4.12389 13.2933 3.74833 13.2933 3.13444C13.2933 2.52778 13.6833 2.145 14.3188 2.145C14.9544 2.145 15.3444 2.52778 15.3444 3.13444ZM20.6341 3.17778C20.6341 2.05833 19.8252 1.34333 18.7202 1.34333C17.6008 1.34333 16.7775 2.08722 16.7775 3.13444C16.7775 4.17444 17.5647 4.88944 18.5541 4.88944C18.7708 4.88944 18.9658 4.85333 19.1391 4.77389L17.7741 6.5H18.8358L19.8758 5.12778C20.3813 4.45611 20.6341 3.80611 20.6341 3.17778ZM19.7313 3.13444C19.7313 3.74833 19.3413 4.12389 18.7058 4.12389C18.0702 4.12389 17.6802 3.74833 17.6802 3.13444C17.6802 2.52778 18.0702 2.145 18.7058 2.145C19.3413 2.145 19.7313 2.52778 19.7313 3.13444Z" fill="white"/>
</svg>
