<svg width="107" height="107" viewBox="0 0 107 107" fill="none" xmlns="http://www.w3.org/2000/svg">
<rect width="107" height="107" rx="23.1954" fill="#06335B" fill-opacity="0.26"/>
<g clip-path="url(#clip0_1_164)">
<path d="M80.9393 45.3205C80.4476 45.6951 79.9269 46.0121 79.3774 46.3003L80.9393 45.3205Z" stroke="black" stroke-width="1.15977" stroke-miterlimit="10"/>
<path d="M80.9392 45.3205L79.3483 46.3003" stroke="black" stroke-width="1.15977" stroke-miterlimit="10"/>
<path d="M80.9393 45.3205C80.4476 45.6951 79.9269 46.0121 79.3774 46.3003L80.9393 45.3205Z" stroke="black" stroke-width="1.15977" stroke-miterlimit="10"/>
<path d="M81.8358 25.5223V44.5424C81.5465 44.8306 81.2573 45.09 80.9391 45.3205C80.4474 45.6951 79.9268 46.0121 79.3772 46.3003L52.6224 62.8997L26.0122 46.4156C25.4337 46.1562 24.8841 45.8392 24.3924 45.4646V25.5223C24.3635 22.871 26.5328 20.7097 29.2228 20.7097H77.0054C79.6665 20.7097 81.8358 22.871 81.8358 25.5223Z" fill="white"/>
<rect x="33.006" y="27.7333" width="39.2621" height="4.21418" fill="#ECECEC"/>
<rect x="33.006" y="36.1616" width="39.2621" height="4.21418" fill="#ECECEC"/>
<rect x="33.006" y="43.1853" width="39.2621" height="4.21418" fill="#ECECEC"/>
<rect x="33.006" y="50.2089" width="39.2621" height="4.21418" fill="#ECECEC"/>
<path d="M59.8246 67.3954H29.2229C26.5619 67.3954 24.3926 65.234 24.3926 62.5827V45.4646C24.9132 45.8392 25.4338 46.1562 26.0123 46.4156L52.5936 62.8997L59.8246 67.3954Z" fill="white"/>
<path d="M24.3639 30.2773V45.4646C24.2193 45.3493 24.0746 45.2629 23.9589 45.1476C21.8475 43.4185 20.488 40.796 20.488 37.8854C20.488 34.7442 22.021 31.9776 24.3639 30.2773Z" fill="#06233E"/>
<path d="M81.9232 44.6719L81.9233 44.672L81.9288 44.6667C83.6972 42.9341 84.7577 40.5264 84.7577 37.8854C84.7577 35.2691 83.6888 32.8838 81.981 31.1565V30.8805C84.4989 32.7963 86.1163 35.8463 86.1163 39.2398V70.3636C86.1163 74.5284 83.7052 78.1079 80.2162 79.8525L58.3259 69.0181L49.4844 64.2488L79.4303 46.4541C79.9914 46.1883 80.5197 45.8367 81.0142 45.4601C81.2598 45.2819 81.4914 45.0684 81.7097 44.867C81.7823 44.8 81.8535 44.7344 81.9232 44.6719Z" fill="url(#paint0_linear_1_164)" stroke="#06335B" stroke-width="0.347931"/>
<path d="M23.8497 45.2831L23.8503 45.2836C23.9236 45.342 23.9895 45.3931 24.0544 45.4434L24.0547 45.4436C24.1198 45.4941 24.184 45.5438 24.2553 45.6006L24.2552 45.6008L24.2621 45.6058C24.7866 45.9833 25.3143 46.3052 25.9016 46.5696L52.4729 63.0474L52.4731 63.0475L59.7039 67.5431L59.7042 67.5432L79.8517 80.0254C78.5322 80.6189 77.069 80.9389 75.5305 80.9389H29.7725C23.9096 80.9389 19.1578 76.2035 19.1578 70.3636V39.2398C19.1578 35.5875 21.0175 32.3551 23.8343 30.4654C21.6908 32.2133 20.3139 34.8813 20.3139 37.8854C20.3139 40.8796 21.6988 43.5511 23.8497 45.2831Z" fill="url(#paint1_linear_1_164)" stroke="#06335B" stroke-width="0.347931"/>
<path d="M84.6126 37.8854C84.6126 40.479 83.5424 42.8421 81.8359 44.5424V31.1995C83.5424 32.8998 84.6126 35.2629 84.6126 37.8854Z" fill="#06233E"/>
<path d="M81.8358 25.5223V44.5424C81.5465 44.8306 81.2573 45.09 80.9391 45.3205C80.4474 45.6951 79.9268 46.0121 79.3772 46.3003L52.6224 62.8997L26.0122 46.4156C25.4337 46.1562 24.8841 45.8392 24.3924 45.4646V25.5223C24.3635 22.871 26.5328 20.7097 29.2228 20.7097H77.0054C79.6665 20.7097 81.8358 22.871 81.8358 25.5223Z" fill="url(#paint2_linear_1_164)"/>
</g>
<defs>
<linearGradient id="paint0_linear_1_164" x1="72.2681" y1="58.6373" x2="54.7287" y2="67.0412" gradientUnits="userSpaceOnUse">
<stop stop-color="#06335B"/>
<stop offset="1" stop-color="#082947"/>
</linearGradient>
<linearGradient id="paint1_linear_1_164" x1="17.5816" y1="48.1018" x2="55.5525" y2="128.821" gradientUnits="userSpaceOnUse">
<stop stop-color="#06335B"/>
<stop offset="1" stop-color="#062A4A"/>
</linearGradient>
<linearGradient id="paint2_linear_1_164" x1="21.7881" y1="68.4703" x2="70.94" y2="26.4154" gradientUnits="userSpaceOnUse">
<stop stop-opacity="0.22"/>
<stop offset="1" stop-color="white" stop-opacity="0"/>
</linearGradient>
<clipPath id="clip0_1_164">
<rect width="67.3064" height="60.4032" fill="white" transform="translate(18.9838 20.7097)"/>
</clipPath>
</defs>
</svg>
