<svg width="22" height="22" viewBox="0 0 22 22" fill="none" xmlns="http://www.w3.org/2000/svg">
<path d="M18.68 0.919998H3.32001C1.99521 0.919998 0.920013 1.9952 0.920013 3.32V18.68C0.920013 20.0048 1.99521 21.08 3.32001 21.08H18.68C20.0048 21.08 21.08 20.0048 21.08 18.68V3.32C21.08 1.9952 20.0048 0.919998 18.68 0.919998ZM16.76 8.12H15.8C14.7728 8.12 14.36 8.36 14.36 9.08V10.52H16.76L16.28 12.92H14.36V20.12H11.96V12.92H10.04V10.52H11.96V9.08C11.96 7.16 12.92 5.72 14.84 5.72C16.232 5.72 16.76 6.2 16.76 6.2V8.12Z" fill="#06335B"/>
</svg>
