<svg width="52" height="52" viewBox="0 0 52 52" fill="none" xmlns="http://www.w3.org/2000/svg">
<rect x="0.663269" y="0.851196" width="50.5824" height="50.5824" rx="24.3622" fill="white"/>
<path d="M16.394 28.0507L25.2408 36.427C25.5455 36.7155 25.6979 36.8598 25.8775 36.8953C25.9584 36.9113 26.0416 36.9113 26.1225 36.8953C26.3022 36.8598 26.4546 36.7155 26.7593 36.427L35.6061 28.0507C38.0952 25.694 38.3974 21.8157 36.304 19.0962L35.9103 18.5848C33.406 15.3314 28.379 15.877 26.6193 19.5932C26.3707 20.1182 25.6294 20.1182 25.3808 19.5932C23.621 15.877 18.5941 15.3314 16.0897 18.5848L15.6961 19.0962C13.6026 21.8157 13.9049 25.694 16.394 28.0507Z" stroke="#06335B" stroke-width="2.92347"/>
</svg>
