<svg width="100" height="25" viewBox="0 0 100 25" fill="none" xmlns="http://www.w3.org/2000/svg">
<path d="M55.5119 0.00136496C55.1003 -0.0140336 54.6937 0.101146 54.3443 0.332175C53.9949 0.563204 53.7187 0.899515 53.551 1.29797C53.3834 1.69643 53.332 2.13887 53.4034 2.5685C53.4747 2.99813 53.6657 3.39535 53.9517 3.70925C54.2377 4.02314 54.6058 4.23938 55.0087 4.33019C55.4115 4.42101 55.8308 4.38226 56.2127 4.21894C56.5947 4.05563 56.9218 3.77521 57.1522 3.41361C57.3826 3.05202 57.5058 2.62576 57.5059 2.18953C57.522 1.9042 57.482 1.61842 57.3885 1.3503C57.2949 1.08217 57.1498 0.837535 56.9624 0.631857C56.775 0.426179 56.5493 0.263926 56.2996 0.155395C56.05 0.0468641 55.7817 -0.00556144 55.5119 0.00136496Z" fill="#57CC99"/>
<path d="M74.8502 6.08226V19.7686H71.1524V9.4141H65.1732V15.0568C65.1732 16.1977 65.6298 16.6595 66.422 16.635C67.0256 16.5958 67.6147 16.4224 68.1508 16.1259L68.9233 19.0004C67.8961 19.6144 66.7372 19.9383 65.5577 19.9413C63.2505 19.9413 61.4977 18.5423 61.4977 15.7186V9.38864H57.3622V19.7623H53.6713V6.07499H57.3708V6.685H61.502V2.9268H65.1732V6.69227H71.1541V6.08226H74.8502Z" fill="#57CC99"/>
<path d="M73.0024 0.00136496C72.5908 -0.0140336 72.1842 0.101146 71.8348 0.332175C71.4855 0.563204 71.2092 0.899515 71.0416 1.29797C70.8739 1.69643 70.8224 2.13887 70.8938 2.5685C70.9652 2.99813 71.1562 3.39535 71.4422 3.70925C71.7283 4.02314 72.0963 4.23938 72.4991 4.33019C72.902 4.42101 73.3213 4.38226 73.7033 4.21894C74.0852 4.05563 74.4123 3.77521 74.6427 3.41361C74.8731 3.05202 74.9962 2.62576 74.9963 2.18953C75.0126 1.90416 74.9727 1.61831 74.8792 1.35013C74.7857 1.08194 74.6407 0.837287 74.4532 0.63158C74.2658 0.425873 74.04 0.263601 73.7903 0.155118C73.5405 0.0466345 73.2722 -0.00569935 73.0024 0.00136496Z" fill="#57CC99"/>
<path d="M12.8521 16.0549V19.764H9.15259V0.891335H12.8521V11.2722L17.5833 6.10678H21.7874L17.0571 11.3731L22.0029 19.7622H17.6322L14.5095 14.2022L12.8521 16.0549Z" fill="#06335B"/>
<path d="M30.8189 18.165C30.3161 18.7708 29.6888 19.2464 28.9852 19.5551C28.2817 19.8639 27.5206 19.9976 26.7606 19.9459C23.9985 19.9459 22.3187 18.165 22.3187 15.6732C22.3187 13.1068 24.0688 11.5769 27.2413 11.5514H30.7966V11.2959C30.7966 9.84139 29.8841 9.015 28.1039 9.015C26.7493 9.06972 25.4288 9.48023 24.2611 10.2096L23.1152 7.50499C24.9026 6.47037 26.9073 5.92949 28.9442 5.93229C32.4042 5.93229 34.3973 7.76322 34.4213 10.8414L34.4454 19.7704H30.8171L30.8189 18.165ZM30.7948 15.0868V13.8659H27.8885C26.4714 13.8659 25.7752 14.3205 25.7752 15.4177C25.7752 16.4614 26.5477 17.145 27.794 17.145C29.3537 17.1468 30.5751 16.2568 30.794 15.0868H30.7948Z" fill="#06335B"/>
<path d="M51.2158 13.0014C51.2158 17.1468 48.8373 19.9205 45.2074 19.9205C44.402 19.9547 43.6011 19.7774 42.8761 19.4043C42.1511 19.0312 41.5245 18.474 41.0521 17.7823V24.7014H37.3561V6.08322H41.0555V8.09233C41.5151 7.40489 42.1289 6.84939 42.8418 6.47595C43.5546 6.10252 44.344 5.92286 45.1387 5.95322C48.7661 5.95413 51.2158 8.78411 51.2158 13.0014ZM47.4683 12.8742C47.4683 10.686 46.1722 9.10867 44.2735 9.10867C42.3748 9.10867 41.0547 10.6596 41.0547 12.8742C41.0547 15.1378 42.3748 16.6632 44.2735 16.6632C46.1722 16.6632 47.4683 15.1123 47.4683 12.8742Z" fill="#06335B"/>
<path d="M82.7772 5.5477V6.68861H85.8269V9.41045H82.7772V19.7623H79.1026V9.41405H77.3722V6.69228H79.1018V5.395C79.1018 2.34228 81.263 0.714114 83.8578 0.714114C85.0499 0.694931 86.2232 1.02968 87.2449 1.68047L85.923 4.53225C85.4561 4.16208 84.8908 3.9575 84.3076 3.9477C84.1034 3.92668 83.8974 3.95348 83.704 4.02615C83.5107 4.09883 83.3348 4.21564 83.1888 4.36828C83.0428 4.52093 82.9302 4.70568 82.8591 4.9095C82.788 5.11331 82.76 5.33118 82.7772 5.5477Z" fill="#06335B"/>
<path d="M94.3306 21.294C93.4182 23.7177 91.832 24.8813 89.5994 24.8813C88.316 24.9141 87.0664 24.443 86.0913 23.5585L87.6527 20.734C88.1059 21.1948 88.7061 21.4583 89.3342 21.4722C89.7025 21.4788 90.0639 21.365 90.369 21.1464C90.6742 20.9278 90.9084 20.6149 91.0397 20.2504L91.4002 19.4877L86.0441 6.08586H89.8629L93.25 15.4959L96.3005 6.08586H100L94.3306 21.294Z" fill="#06335B"/>
<path d="M2.92696 0.891361C3.50586 0.891361 4.07175 1.07317 4.55309 1.4138C5.03443 1.75444 5.40958 2.23859 5.63112 2.80504C5.85265 3.37149 5.91061 3.9948 5.79768 4.59614C5.68474 5.19748 5.40597 5.74984 4.99663 6.18338C4.58729 6.61693 4.06575 6.91217 3.49798 7.03179C2.93021 7.1514 2.34169 7.09001 1.80686 6.85538C1.27203 6.62075 0.8149 6.22341 0.493281 5.71362C0.171663 5.20383 0 4.60448 0 3.99136C0 3.16919 0.308375 2.38069 0.857286 1.79933C1.4062 1.21797 2.15068 0.891361 2.92696 0.891361Z" fill="#57CC99"/>
</svg>
