<svg width="124" height="31" viewBox="0 0 124 31" fill="none" xmlns="http://www.w3.org/2000/svg">
<path d="M68.8349 0.00169255C68.3245 -0.0174017 67.8203 0.125421 67.3871 0.411897C66.9539 0.698374 66.6113 1.1154 66.4034 1.60949C66.1955 2.10357 66.1318 2.6522 66.2203 3.18494C66.3088 3.71768 66.5456 4.21024 66.9003 4.59947C67.255 4.98869 67.7114 5.25683 68.2109 5.36944C68.7104 5.48206 69.2303 5.434 69.7039 5.23149C70.1775 5.02898 70.5832 4.68126 70.8689 4.23288C71.1546 3.7845 71.3073 3.25594 71.3074 2.71502C71.3274 2.3612 71.2778 2.00684 71.1618 1.67437C71.0458 1.34189 70.866 1.03854 70.6336 0.783503C70.4012 0.528463 70.1213 0.327269 69.8117 0.19269C69.5021 0.0581115 69.1695 -0.00689619 68.8349 0.00169255Z" fill="#57CC99"/>
<path d="M92.8142 7.54204V24.5131H88.229V11.6735H80.8147V18.6705C80.8147 20.0852 81.3809 20.6579 82.3633 20.6274C83.1118 20.5789 83.8422 20.3638 84.507 19.9962L85.4648 23.5606C84.1911 24.3219 82.7541 24.7236 81.2916 24.7273C78.4306 24.7273 76.2571 22.9925 76.2571 19.4912V11.642H71.1291V24.5053H66.5524V7.53303H71.1398V8.28945H76.2625V3.62927H80.8147V8.29846H88.2311V7.54204H92.8142Z" fill="#57CC99"/>
<path d="M90.523 0.00169255C90.0126 -0.0174017 89.5085 0.125421 89.0753 0.411897C88.642 0.698374 88.2995 1.1154 88.0916 1.60949C87.8837 2.10357 87.8199 2.6522 87.9084 3.18494C87.9969 3.71768 88.2338 4.21024 88.5884 4.59947C88.9431 4.98869 89.3995 5.25683 89.899 5.36944C90.3985 5.48206 90.9185 5.434 91.3921 5.23149C91.8657 5.02898 92.2713 4.68126 92.557 4.23288C92.8427 3.7845 92.9954 3.25594 92.9955 2.71502C93.0157 2.36116 92.9663 2.00671 92.8503 1.67416C92.7344 1.34161 92.5545 1.03824 92.322 0.783159C92.0896 0.528082 91.8097 0.326866 91.5 0.192346C91.1903 0.0578268 90.8576 -0.0070672 90.523 0.00169255Z" fill="#57CC99"/>
<path d="M15.9366 19.9081V24.5074H11.3493V1.10522H15.9366V13.9775L21.8033 7.57238H27.0165L21.1509 14.1026L27.2837 24.5051H21.864L17.9919 17.6107L15.9366 19.9081Z" fill="#06335B"/>
<path d="M38.2153 22.5247C37.5919 23.2759 36.814 23.8656 35.9416 24.2484C35.0692 24.6313 34.1255 24.797 33.1831 24.733C29.758 24.733 27.675 22.5247 27.675 19.4348C27.675 16.2526 29.8453 14.3554 33.7791 14.3238H38.1876V14.007C38.1876 12.2034 37.0562 11.1787 34.8488 11.1787C33.1691 11.2465 31.5316 11.7555 30.0837 12.6599L28.6628 9.30625C30.8791 8.02332 33.365 7.35263 35.8908 7.35609C40.1811 7.35609 42.6526 9.62645 42.6824 13.4434L42.7122 24.5154H38.2132L38.2153 22.5247ZM38.1855 18.7077V17.1938H34.5816C32.8244 17.1938 31.9612 17.7575 31.9612 19.1181C31.9612 20.4122 32.9191 21.2598 34.4645 21.2598C36.3984 21.2621 37.913 20.1585 38.1844 18.7077H38.1855Z" fill="#06335B"/>
<path d="M63.5077 16.1217C63.5077 21.2621 60.5584 24.7014 56.0572 24.7014C55.0585 24.7439 54.0655 24.524 53.1665 24.0614C52.2675 23.5988 51.4905 22.9078 50.9047 22.0501V30.6297H46.3216V7.54322H50.9089V10.0345C51.4787 9.18209 52.2399 8.49327 53.1238 8.03021C54.0077 7.56715 54.9866 7.34438 55.9721 7.38202C60.47 7.38314 63.5077 10.8923 63.5077 16.1217ZM58.8607 15.964C58.8607 13.2506 57.2535 11.2948 54.8992 11.2948C52.5449 11.2948 50.9079 13.2179 50.9079 15.964C50.9079 18.7709 52.5449 20.6624 54.8992 20.6624C57.2535 20.6624 58.8607 18.7393 58.8607 15.964Z" fill="#06335B"/>
<path d="M102.644 6.87914V8.29387H106.425V11.6689H102.644V24.5052H98.0873V11.6734H95.9416V8.29841H98.0863V6.68979C98.0863 2.90442 100.766 0.885489 103.984 0.885489C105.462 0.861703 106.917 1.27679 108.184 2.08377L106.545 5.61997C105.966 5.16097 105.265 4.90729 104.542 4.89513C104.288 4.86907 104.033 4.90231 103.793 4.99242C103.553 5.08253 103.335 5.22738 103.154 5.41666C102.973 5.60594 102.834 5.83503 102.745 6.08777C102.657 6.3405 102.622 6.61065 102.644 6.87914V6.87914Z" fill="#06335B"/>
<path d="M116.97 26.4046C115.839 29.4099 113.872 30.8528 111.103 30.8528C109.512 30.8936 107.962 30.3094 106.753 29.2126L108.689 25.7102C109.251 26.2816 109.996 26.6083 110.774 26.6256C111.231 26.6337 111.679 26.4927 112.058 26.2216C112.436 25.9505 112.726 25.5626 112.889 25.1105L113.336 24.1648L106.695 7.54651H111.43L115.63 19.2149L119.413 7.54651H124L116.97 26.4046Z" fill="#06335B"/>
<path d="M3.62943 1.10522C4.34726 1.10522 5.04898 1.33067 5.64583 1.75305C6.24269 2.17544 6.70788 2.77579 6.98259 3.47819C7.25729 4.18059 7.32916 4.95348 7.18912 5.69915C7.04908 6.44481 6.70341 7.12974 6.19582 7.66734C5.68824 8.20493 5.04154 8.57103 4.3375 8.71936C3.63346 8.86768 2.9037 8.79155 2.24051 8.50061C1.57732 8.20967 1.01048 7.71697 0.611669 7.08483C0.212862 6.45269 0 5.70949 0 4.94922C0 3.92973 0.382385 2.95199 1.06304 2.2311C1.74369 1.51022 2.66685 1.10522 3.62943 1.10522Z" fill="#57CC99"/>
</svg>
