<svg width="32" height="32" viewBox="0 0 32 32" fill="none" xmlns="http://www.w3.org/2000/svg">
<rect width="31.4432" height="31.4432" rx="4.53345" fill="#06335B"/>
<path d="M14.8407 12.1298C14.4936 12.1298 14.1499 12.1981 13.8293 12.3309C13.5087 12.4638 13.2173 12.6584 12.9719 12.9038C12.7265 13.1493 12.5318 13.4406 12.399 13.7612C12.2662 14.0819 12.1978 14.4256 12.1978 14.7726M22.7692 22.7012L20.1264 20.0583M21.0073 14.7726C21.0073 18.1784 18.2464 20.9393 14.8407 20.9393C11.4349 20.9393 8.67401 18.1784 8.67401 14.7726C8.67401 11.3669 11.4349 8.60596 14.8407 8.60596C18.2464 8.60596 21.0073 11.3669 21.0073 14.7726Z" stroke="white" stroke-width="1.62637" stroke-linecap="round"/>
</svg>
