<svg width="63" height="18" viewBox="0 0 63 18" fill="none" xmlns="http://www.w3.org/2000/svg">
<rect width="63" height="17.2603" rx="8.63014" fill="#06335B"/>
<path d="M8.98914 8.58356C8.96843 10.0127 10.0248 11.1174 11.4677 11.0967C12.4274 11.0967 13.2214 10.641 13.6149 9.80559L12.8693 9.40515C12.5862 9.9851 12.096 10.2751 11.4884 10.2751C10.5495 10.2751 9.90739 9.55704 9.90739 8.58356C9.90739 7.61008 10.5495 6.89205 11.4884 6.89205C12.096 6.89205 12.5793 7.18203 12.8623 7.76197L13.6149 7.36153C13.2214 6.52614 12.4274 6.07047 11.4677 6.07047C10.0248 6.04975 8.96843 7.16822 8.98914 8.58356ZM14.0648 9.24636C14.0648 10.2682 14.8173 11.0967 15.9151 11.0967C17.0336 11.0967 17.7654 10.2682 17.7654 9.24636C17.7654 8.21764 17.0336 7.38915 15.9151 7.38915C14.8173 7.38915 14.0648 8.21764 14.0648 9.24636ZM16.9024 9.24636C16.9024 9.88844 16.5158 10.3303 15.9151 10.3303C15.3144 10.3303 14.9278 9.88844 14.9278 9.24636C14.9278 8.59047 15.3144 8.15551 15.9151 8.15551C16.5158 8.15551 16.9024 8.59047 16.9024 9.24636ZM23.9724 8.71474C23.9724 7.87934 23.5374 7.38915 22.7917 7.38915C22.2325 7.38915 21.7768 7.65841 21.5904 8.07266C21.4247 7.6377 21.0381 7.38915 20.5341 7.38915C20.037 7.38915 19.6159 7.63079 19.4225 8.01742V7.48581H18.5941V11H19.4364V8.9771C19.4364 8.4731 19.7539 8.16241 20.2441 8.16241C20.6653 8.16241 20.8586 8.39715 20.8586 8.92186V11H21.7009V8.9771C21.7009 8.4731 22.0254 8.16241 22.5156 8.16241C22.9367 8.16241 23.1301 8.39715 23.1301 8.92186V11H23.9724V8.71474ZM24.882 6.37425C24.882 6.67803 25.096 6.89896 25.4205 6.89896C25.7312 6.89896 25.9522 6.67803 25.9522 6.37425C25.9522 6.07047 25.7312 5.84953 25.4205 5.84953C25.096 5.84953 24.882 6.07047 24.882 6.37425ZM24.9994 11H25.8417V7.48581H24.9994V11ZM30.0973 8.72164C30.0973 7.87244 29.6417 7.38915 28.8753 7.38915C28.3437 7.38915 27.9156 7.63079 27.7223 8.02433V7.48581H26.8938V11H27.7361V8.984C27.7361 8.46619 28.0675 8.16241 28.5853 8.16241C29.0479 8.16241 29.255 8.40405 29.255 8.93567V11H30.0973V8.72164ZM33.7173 7.48581V8.05885C33.5171 7.6377 33.0614 7.38915 32.516 7.38915C31.584 7.38915 30.8936 8.1486 30.8936 9.19112C30.8936 10.2336 31.5771 10.9655 32.5091 10.9655C33.0614 10.9655 33.5171 10.7169 33.7173 10.3027V10.5927C33.7173 11.3314 33.3169 11.7249 32.6058 11.7249C32.1708 11.7249 31.7497 11.573 31.4114 11.3038L31.004 11.9182C31.3838 12.2704 31.9775 12.4775 32.6472 12.4775C33.8623 12.4775 34.5458 11.7871 34.5458 10.5927V7.48581H33.7173ZM33.7381 9.18422C33.7381 9.79178 33.3514 10.2198 32.7508 10.2198C32.1501 10.2198 31.7635 9.79178 31.7635 9.18422C31.7635 8.57666 32.1501 8.1486 32.7508 8.1486C33.3514 8.1486 33.7381 8.57666 33.7381 9.18422ZM36.859 10.0058C37.1835 10.6893 37.9223 11.0967 38.8888 11.0967C40.0694 11.0967 40.7599 10.496 40.7599 9.60537C40.7599 8.91496 40.3456 8.4731 39.4343 8.25216L38.6403 8.06575C38.088 7.93458 37.8877 7.74816 37.8877 7.4651C37.8877 7.08537 38.2122 6.85753 38.7922 6.85753C39.3238 6.85753 39.745 7.05085 40.0142 7.41677L40.6425 6.95419C40.3594 6.40877 39.669 6.07047 38.806 6.07047C37.6875 6.07047 36.9971 6.65041 36.9971 7.4789C36.9971 8.16241 37.4528 8.61808 38.3572 8.83211L39.1374 9.01852C39.6621 9.1497 39.8692 9.33611 39.8692 9.64679C39.8692 10.0541 39.524 10.3096 38.9165 10.3096C38.2882 10.3096 37.7773 10.0403 37.4942 9.55014L36.859 10.0058ZM41.3374 9.24636C41.3374 10.2682 42.0899 11.0967 43.1877 11.0967C44.3061 11.0967 45.038 10.2682 45.038 9.24636C45.038 8.21764 44.3061 7.38915 43.1877 7.38915C42.0899 7.38915 41.3374 8.21764 41.3374 9.24636ZM44.175 9.24636C44.175 9.88844 43.7883 10.3303 43.1877 10.3303C42.587 10.3303 42.2004 9.88844 42.2004 9.24636C42.2004 8.59047 42.587 8.15551 43.1877 8.15551C43.7883 8.15551 44.175 8.59047 44.175 9.24636ZM45.6457 9.24636C45.6457 10.2682 46.3982 11.0967 47.496 11.0967C48.6145 11.0967 49.3463 10.2682 49.3463 9.24636C49.3463 8.21764 48.6145 7.38915 47.496 7.38915C46.3982 7.38915 45.6457 8.21764 45.6457 9.24636ZM48.4833 9.24636C48.4833 9.88844 48.0967 10.3303 47.496 10.3303C46.8953 10.3303 46.5087 9.88844 46.5087 9.24636C46.5087 8.59047 46.8953 8.15551 47.496 8.15551C48.0967 8.15551 48.4833 8.59047 48.4833 9.24636ZM53.3785 8.72164C53.3785 7.87244 52.9228 7.38915 52.1564 7.38915C51.6248 7.38915 51.1968 7.63079 51.0034 8.02433V7.48581H50.175V11H51.0173V8.984C51.0173 8.46619 51.3487 8.16241 51.8665 8.16241C52.329 8.16241 52.5362 8.40405 52.5362 8.93567V11H53.3785V8.72164Z" fill="white"/>
</svg>
