<svg width="24" height="20" viewBox="0 0 24 20" fill="none" xmlns="http://www.w3.org/2000/svg">
<path d="M24 2.36736C23.1166 2.76965 22.1678 3.04037 21.1718 3.16248C22.189 2.53774 22.969 1.54858 23.3363 0.369161C22.3856 0.947513 21.3315 1.36779 20.2091 1.59496C19.3109 0.613375 18.0316 0 16.6157 0C13.8964 0 11.6922 2.26135 11.6922 5.04899C11.6922 5.44465 11.7365 5.83085 11.8195 6.19906C7.7277 5.98892 4.10015 3.97842 1.67071 0.922902C1.24795 1.6688 1.00519 2.53585 1.00519 3.46254C1.00519 5.21369 1.87377 6.75943 3.19465 7.66435C2.38791 7.63784 1.62825 7.41067 0.964578 7.03299C0.964578 7.05476 0.964578 7.07464 0.964578 7.09641C0.964578 9.54328 2.66113 11.5841 4.91427 12.0469C4.50167 12.1624 4.066 12.224 3.61648 12.224C3.29987 12.224 2.99065 12.1918 2.69067 12.134C3.31741 14.1398 5.1358 15.6004 7.29018 15.6411C5.60563 16.9956 3.48264 17.803 1.17503 17.803C0.778124 17.803 0.385831 17.7794 0 17.732C2.1793 19.1642 4.76659 20 7.54771 20C16.6046 20 21.5558 12.3063 21.5558 5.63396C21.5558 5.41531 21.5512 5.1976 21.5419 4.98083C22.5047 4.26807 23.34 3.37924 24 2.36736Z" fill="#06335B"/>
</svg>
